<?xml version="1.0" encoding="utf-8"?>
<!-- Generator: Adobe Illustrator 17.0.0, SVG Export Plug-In . SVG Version: 6.00 Build 0)  -->
<!DOCTYPE svg PUBLIC "-//W3C//DTD SVG 1.1//EN" "http://www.w3.org/Graphics/SVG/1.1/DTD/svg11.dtd">
<svg version="1.1" id="图层_1" xmlns="http://www.w3.org/2000/svg" xmlns:xlink="http://www.w3.org/1999/xlink" x="0px" y="0px"
	 width="1024px" height="1024px" viewBox="0 0 1024 1024" enable-background="new 0 0 1024 1024" xml:space="preserve">
<path d="M512,904.774c-3.469,0-6.938-0.901-10.043-2.704c-4.442-2.58-110.043-64.295-217.363-161.229
	c-63.426-57.288-114.069-114.954-150.52-171.395C87.576,497.451,64,427.026,64,360.129c0-30.789,5.431-60.986,16.142-89.753
	c10.698-28.73,26.119-54.588,45.836-76.854c42.426-47.911,101.066-74.296,165.118-74.296c60.959,0,121.512,21.275,166.133,58.37
	c23.67,19.677,42.12,42.956,54.771,68.633c12.65-25.677,31.101-48.956,54.77-68.633c44.621-37.095,105.175-58.37,166.134-58.37
	c64.052,0,122.692,26.386,165.118,74.296c19.717,22.266,35.139,48.124,45.836,76.854C954.569,299.143,960,329.34,960,360.129
	c0,66.897-23.576,137.322-70.074,209.318c-36.451,56.44-87.094,114.106-150.521,171.395
	C632.087,837.775,526.485,899.49,522.043,902.07C518.938,903.873,515.469,904.774,512,904.774z"/>
</svg>
