<?xml version="1.0" encoding="utf-8"?>
<!-- Generator: Adobe Illustrator 17.0.0, SVG Export Plug-In . SVG Version: 6.00 Build 0)  -->
<!DOCTYPE svg PUBLIC "-//W3C//DTD SVG 1.1//EN" "http://www.w3.org/Graphics/SVG/1.1/DTD/svg11.dtd">
<svg version="1.1" id="图层_1" xmlns="http://www.w3.org/2000/svg" xmlns:xlink="http://www.w3.org/1999/xlink" x="0px" y="0px"
	 width="1024px" height="1024px" viewBox="0 0 1024 1024" enable-background="new 0 0 1024 1024" xml:space="preserve">
<path d="M512.007,64c-209.784,0-380.455,170.668-380.455,380.449c0,78.212,23.661,153.407,68.424,217.454
	c0.252,0.361,0.516,0.713,0.791,1.056l29.918,37.304c0.275,0.343,0.561,0.676,0.857,1
	c11.569,12.624,240.654,228.693,266.737,253.289C502.132,958.184,507.065,960,512,960c4.934,0,9.869-1.816,13.721-5.449
	c26.085-24.596,255.182-240.672,266.77-253.319c0.297-0.323,0.583-0.656,0.857-0.999l29.89-37.275
	c0.274-0.343,0.538-0.694,0.79-1.055c44.762-64.046,68.421-139.24,68.421-217.454C892.448,234.668,721.783,64,512.007,64z
	 M512.003,566.743c-70.581,0-128.003-57.421-128.003-128s57.422-128,128.003-128c70.578,0,127.997,57.421,127.997,128
	S582.58,566.743,512.003,566.743z"/>
</svg>
