<?xml version="1.0" encoding="utf-8"?>
<!-- Generator: Adobe Illustrator 17.0.0, SVG Export Plug-In . SVG Version: 6.00 Build 0)  -->
<!DOCTYPE svg PUBLIC "-//W3C//DTD SVG 1.1//EN" "http://www.w3.org/Graphics/SVG/1.1/DTD/svg11.dtd">
<svg version="1.1" id="图层_1" xmlns="http://www.w3.org/2000/svg" xmlns:xlink="http://www.w3.org/1999/xlink" x="0px" y="0px"
	 width="1024px" height="1024px" viewBox="0 0 1024 1024" enable-background="new 0 0 1024 1024" xml:space="preserve">
<path d="M512,947c-3.777,0-7.553-1.068-10.857-3.204c-4.443-2.871-110.04-71.574-217.324-179.452
	c-63.334-63.685-113.883-127.756-150.244-190.433C87.409,494.33,64,416.615,64,342.926c0-33.775,5.355-66.914,15.918-98.494
	c10.578-31.625,25.846-60.114,45.381-84.674C167.749,106.391,226.63,77,291.097,77c63.803,0,122.603,18.258,165.566,51.411
	c24.12,18.612,42.677,41.254,55.337,67.222c12.66-25.968,31.218-48.61,55.337-67.222C610.301,95.258,669.1,77,732.903,77
	c64.467,0,123.348,29.391,165.797,82.758c19.536,24.56,34.805,53.048,45.382,84.674C954.645,276.012,960,309.15,960,342.926
	c0,73.689-23.408,151.404-69.575,230.985c-36.36,62.677-86.91,126.748-150.244,190.433
	C632.897,872.222,527.3,940.925,522.857,943.796C519.554,945.932,515.776,947,512,947z M291.097,117
	C173.983,117,104,231.871,104,342.926c0,151.977,113.21,297.715,208.181,393.212c84.757,85.226,170.224,146.457,199.815,166.76
	c29.669-20.366,115.535-81.904,200.349-167.289C807.076,640.239,920,494.697,920,342.926C920,231.871,850.017,117,732.903,117
	C632.903,117,532,169.565,532,287c0,11.046-8.954,20-20,20s-20-8.954-20-20C492,169.565,391.097,117,291.097,117z"/>
</svg>
