<?xml version="1.0" encoding="utf-8"?>
<!-- Generator: Adobe Illustrator 17.0.0, SVG Export Plug-In . SVG Version: 6.00 Build 0)  -->
<!DOCTYPE svg PUBLIC "-//W3C//DTD SVG 1.1//EN" "http://www.w3.org/Graphics/SVG/1.1/DTD/svg11.dtd">
<svg version="1.1" id="图层_1" xmlns="http://www.w3.org/2000/svg" xmlns:xlink="http://www.w3.org/1999/xlink" x="0px" y="0px"
	 width="1024px" height="1024px" viewBox="0 0 1024 1024" enable-background="new 0 0 1024 1024" xml:space="preserve">
<path d="M512,64C264.576,64,64,264.576,64,512s200.576,448,448,448s448-200.576,448-448S759.424,64,512,64z M800.396,544.699
	H511.333c-17.673,0-32-14.327-32-32V222.726c0-17.673,14.327-32,32-32c17.673,0,32,14.327,32,32v257.973h257.063
	c17.673,0,32,14.327,32,32C832.396,530.372,818.069,544.699,800.396,544.699z"/>
</svg>
