<?xml version="1.0" encoding="utf-8"?>
<!-- Generator: Adobe Illustrator 17.0.0, SVG Export Plug-In . SVG Version: 6.00 Build 0)  -->
<!DOCTYPE svg PUBLIC "-//W3C//DTD SVG 1.1//EN" "http://www.w3.org/Graphics/SVG/1.1/DTD/svg11.dtd">
<svg version="1.1" id="图层_1" xmlns="http://www.w3.org/2000/svg" xmlns:xlink="http://www.w3.org/1999/xlink" x="0px" y="0px"
	 width="1024px" height="1024px" viewBox="0 0 1024 1024" enable-background="new 0 0 1024 1024" xml:space="preserve">
<g>
	<circle cx="109.212" cy="191.784" r="45"/>
	<circle cx="109.212" cy="512" r="45"/>
	<circle cx="109.212" cy="831.721" r="45"/>
	<path d="M288.044,223.784h639.951c17.673,0,32-14.327,32-32s-14.327-32-32-32H288.044c-17.673,0-32,14.327-32,32
		S270.371,223.784,288.044,223.784z"/>
	<path d="M927.995,480H288.044c-17.673,0-32,14.327-32,32c0,17.673,14.327,32,32,32h639.951c17.673,0,32-14.327,32-32
		C959.995,494.327,945.668,480,927.995,480z"/>
	<path d="M927.995,799.721H288.044c-17.673,0-32,14.327-32,32s14.327,32,32,32h639.951c17.673,0,32-14.327,32-32
		S945.668,799.721,927.995,799.721z"/>
</g>
</svg>
