<?xml version="1.0" encoding="utf-8"?>
<!-- Generator: Adobe Illustrator 17.0.0, SVG Export Plug-In . SVG Version: 6.00 Build 0)  -->
<!DOCTYPE svg PUBLIC "-//W3C//DTD SVG 1.1//EN" "http://www.w3.org/Graphics/SVG/1.1/DTD/svg11.dtd">
<svg version="1.1" id="图层_1" xmlns="http://www.w3.org/2000/svg" xmlns:xlink="http://www.w3.org/1999/xlink" x="0px" y="0px"
	 width="1024px" height="1024px" viewBox="0 0 1024 1024" enable-background="new 0 0 1024 1024" xml:space="preserve">
<g>
	<path d="M682.363,64.146c-11.046,0-20,8.954-20,20s8.954,20,20,20h209.62L671.529,326.169c-7.782,7.838-7.737,20.501,0.101,28.284
		c3.9,3.873,8.997,5.808,14.092,5.808c5.142,0,10.283-1.971,14.192-5.908l220.212-221.779v207.215c0,11.046,8.954,20,20,20
		s20-8.954,20-20V64.146H682.363z"/>
	<path d="M903.538,492.127c-11.046,0-20,8.955-20,20v327.588c0,44.112-35.888,80-80,80h-620c-44.112,0-80-35.888-80-80v-620
		c0-44.112,35.888-80,80-80h328.561c11.045,0,20-8.954,20-20s-8.955-20-20-20H183.539c-66.168,0-120,53.832-120,120v620
		c0,66.168,53.832,120,120,120h620c66.168,0,120-53.832,120-120V512.127C923.538,501.082,914.584,492.127,903.538,492.127z"/>
</g>
</svg>
