<?xml version="1.0" encoding="utf-8"?>
<!-- Generator: Adobe Illustrator 17.0.0, SVG Export Plug-In . SVG Version: 6.00 Build 0)  -->
<!DOCTYPE svg PUBLIC "-//W3C//DTD SVG 1.1//EN" "http://www.w3.org/Graphics/SVG/1.1/DTD/svg11.dtd">
<svg version="1.1" id="图层_1" xmlns="http://www.w3.org/2000/svg" xmlns:xlink="http://www.w3.org/1999/xlink" x="0px" y="0px"
	 width="1024px" height="1024px" viewBox="0 0 1024 1024" enable-background="new 0 0 1024 1024" xml:space="preserve">
<g>
	<path d="M319.674,512.797l81.537,81.54c43.165-44.766,43.165-118.31-1.597-163.076L319.674,512.797z"/>
	<path d="M486.819,351.326l-39.972,39.967c67.149,67.149,67.149,175.862,0,243.011l39.972,39.968
		C576.347,584.744,576.347,440.854,486.819,351.326z"/>
	<path d="M535.291,309.756c111.91,111.916,111.91,292.573,0,404.487l39.967,39.967c134.294-132.697,134.294-350.128,0-484.422
		L535.291,309.756z"/>
	<path d="M924.791,337.616c-22.564-53.349-54.866-101.259-96.007-142.399c-41.142-41.141-89.052-73.442-142.4-96.007
		C631.147,75.846,572.476,64,512,64c-60.476,0-119.147,11.846-174.384,35.209c-53.349,22.564-101.259,54.866-142.399,96.007
		c-41.141,41.141-73.442,89.051-96.007,142.399C75.846,392.853,64,451.524,64,512c0,60.476,11.846,119.147,35.209,174.384
		c22.564,53.349,54.866,101.259,96.007,142.4c41.141,41.141,89.051,73.442,142.399,96.007C392.853,948.154,451.524,960,512,960
		c60.476,0,119.147-11.846,174.384-35.209c53.349-22.564,101.259-54.866,142.4-96.007c41.141-41.142,73.442-89.052,96.007-142.4
		C948.154,631.147,960,572.476,960,512C960,451.524,948.154,392.853,924.791,337.616z M512,944C273.794,944,80,750.206,80,512
		C80,273.794,273.794,80,512,80c238.206,0,432,193.794,432,432C944,750.206,750.206,944,512,944z"/>
</g>
</svg>
