<?xml version="1.0" encoding="utf-8"?>
<!-- Generator: Adobe Illustrator 17.0.0, SVG Export Plug-In . SVG Version: 6.00 Build 0)  -->
<!DOCTYPE svg PUBLIC "-//W3C//DTD SVG 1.1//EN" "http://www.w3.org/Graphics/SVG/1.1/DTD/svg11.dtd">
<svg version="1.1" id="图层_1" xmlns="http://www.w3.org/2000/svg" xmlns:xlink="http://www.w3.org/1999/xlink" x="0px" y="0px"
	 width="1024px" height="1024px" viewBox="0 0 1024 1024" enable-background="new 0 0 1024 1024" xml:space="preserve">
<g>
	<path d="M127.45,448.26h769.101c17.673,0,32-14.327,32-32c0-17.673-14.327-32-32-32H204.634l201.551-201.812
		c12.489-12.505,12.476-32.766-0.029-45.255c-12.504-12.488-32.765-12.475-45.255,0.029L104.808,393.647
		c-9.143,9.155-11.874,22.916-6.918,34.868C102.845,440.468,114.511,448.26,127.45,448.26z"/>
	<path d="M896.551,575.789H127.45c-17.673,0-32,14.327-32,32s14.327,32,32,32h691.917L617.816,841.601
		c-12.489,12.505-12.476,32.767,0.029,45.255c6.247,6.24,14.429,9.358,22.612,9.358c8.195,0,16.394-3.13,22.642-9.387
		l256.094-256.426c9.143-9.154,11.873-22.915,6.918-34.868C921.155,583.581,909.49,575.789,896.551,575.789z"/>
</g>
</svg>
