<?xml version="1.0" encoding="utf-8"?>
<!-- Generator: Adobe Illustrator 17.0.0, SVG Export Plug-In . SVG Version: 6.00 Build 0)  -->
<!DOCTYPE svg PUBLIC "-//W3C//DTD SVG 1.1//EN" "http://www.w3.org/Graphics/SVG/1.1/DTD/svg11.dtd">
<svg version="1.1" id="图层_1" xmlns="http://www.w3.org/2000/svg" xmlns:xlink="http://www.w3.org/1999/xlink" x="0px" y="0px"
	 width="1024px" height="1024px" viewBox="0 0 1024 1024" enable-background="new 0 0 1024 1024" xml:space="preserve">
<path d="M841,63H183c-66.168,0-120,53.832-120,120v658c0,66.168,53.832,120,120,120h658c66.168,0,120-53.832,120-120V183
	C961,116.832,907.168,63,841,63z M693.774,726.785c-32.946,32.948-155.722,1.758-277.011-119.531
	C295.45,485.917,264.285,363.19,297.183,330.266c28.537-28.564,63.343-78.431,115.491-13.475
	c52.172,64.929,26.507,83.063-2.924,112.517c-20.611,20.563,22.371,72.635,67.333,117.574
	c44.963,44.939,96.964,87.871,117.598,67.333c29.456-29.43,47.664-55.096,112.546-2.897
	C772.158,663.489,722.314,698.271,693.774,726.785z"/>
</svg>
