<?xml version="1.0" encoding="utf-8"?>
<!-- Generator: Adobe Illustrator 17.0.0, SVG Export Plug-In . SVG Version: 6.00 Build 0)  -->
<!DOCTYPE svg PUBLIC "-//W3C//DTD SVG 1.1//EN" "http://www.w3.org/Graphics/SVG/1.1/DTD/svg11.dtd">
<svg version="1.1" id="图层_1" xmlns="http://www.w3.org/2000/svg" xmlns:xlink="http://www.w3.org/1999/xlink" x="0px" y="0px"
	 width="1024px" height="1024px" viewBox="0 0 1024 1024" enable-background="new 0 0 1024 1024" xml:space="preserve">
<path d="M852.116,63.642H171.884c-59.971,0-108.761,50.444-108.761,112.448v543.104c0,62.004,48.79,112.448,108.761,112.448h233.798
	l89.669,119.977c3.776,5.052,9.713,8.026,16.02,8.026s12.245-2.975,16.02-8.026l89.669-119.977h235.057
	c59.971,0,108.761-50.444,108.761-112.448V176.09C960.877,114.085,912.087,63.642,852.116,63.642z M305.889,485.059
	c-27.614,0-50-22.386-50-50c0-27.614,22.386-50,50-50s50,22.386,50,50C355.889,462.673,333.503,485.059,305.889,485.059z
	 M512,485.059c-27.614,0-50-22.386-50-50c0-27.614,22.386-50,50-50s50,22.386,50,50C562,462.673,539.614,485.059,512,485.059z
	 M718.31,485.059c-27.614,0-50-22.386-50-50c0-27.614,22.386-50,50-50s50,22.386,50,50
	C768.31,462.673,745.924,485.059,718.31,485.059z"/>
</svg>
