<?xml version="1.0" encoding="utf-8"?>
<!-- Generator: Adobe Illustrator 17.0.0, SVG Export Plug-In . SVG Version: 6.00 Build 0)  -->
<!DOCTYPE svg PUBLIC "-//W3C//DTD SVG 1.1//EN" "http://www.w3.org/Graphics/SVG/1.1/DTD/svg11.dtd">
<svg version="1.1" id="图层_1" xmlns="http://www.w3.org/2000/svg" xmlns:xlink="http://www.w3.org/1999/xlink" x="0px" y="0px"
	 width="1024px" height="1024px" viewBox="0 0 1024 1024" enable-background="new 0 0 1024 1024" xml:space="preserve">
<g>
	<path d="M512.002,284.321c-85.149,0-154.424,69.273-154.424,154.421c0,85.148,69.274,154.421,154.424,154.421
		c85.147,0,154.418-69.273,154.418-154.421C666.421,353.594,597.149,284.321,512.002,284.321z M512.002,553.164
		c-63.094,0-114.424-51.329-114.424-114.421s51.33-114.421,114.424-114.421c63.09,0,114.418,51.329,114.418,114.421
		S575.093,553.164,512.002,553.164z"/>
	<path d="M512.007,64c-209.784,0-380.455,170.668-380.455,380.449c0,78.212,23.661,153.407,68.424,217.454
		c0.252,0.361,0.516,0.713,0.791,1.056l29.918,37.304c0.275,0.343,0.561,0.676,0.857,1
		c11.569,12.624,240.654,228.693,266.737,253.289C502.132,958.184,507.065,960,512,960c4.934,0,9.869-1.816,13.721-5.449
		c26.085-24.596,255.182-240.672,266.77-253.319c0.297-0.323,0.583-0.656,0.857-0.999l29.89-37.275
		c0.274-0.343,0.538-0.694,0.79-1.055c44.762-64.046,68.421-139.24,68.421-217.454C892.448,234.668,721.783,64,512.007,64z
		 M791.613,638.455l-28.98,36.141C751.286,686.403,612.047,818.133,512,912.508c-100.045-94.376-239.283-226.106-250.602-237.884
		l-29.008-36.169c-39.802-57.179-60.838-124.25-60.838-194.006C171.552,256.725,324.279,104,512.007,104
		c187.72,0,340.441,152.725,340.441,340.449C852.448,514.206,831.413,581.277,791.613,638.455z"/>
</g>
</svg>
