<?xml version="1.0" encoding="utf-8"?>
<!-- Generator: Adobe Illustrator 17.0.0, SVG Export Plug-In . SVG Version: 6.00 Build 0)  -->
<!DOCTYPE svg PUBLIC "-//W3C//DTD SVG 1.1//EN" "http://www.w3.org/Graphics/SVG/1.1/DTD/svg11.dtd">
<svg version="1.1" id="图层_1" xmlns="http://www.w3.org/2000/svg" xmlns:xlink="http://www.w3.org/1999/xlink" x="0px" y="0px"
	 width="1024px" height="1024px" viewBox="0 0 1024 1024" enable-background="new 0 0 1024 1024" xml:space="preserve">
<g>
	<path d="M511.995,561.519c62.237,0,120.749-24.236,164.756-68.243c44.008-44.008,68.244-102.52,68.244-164.757
		c0-62.235-24.236-120.747-68.244-164.755c-44.009-44.008-102.521-68.245-164.756-68.245c-62.236,0-120.748,24.237-164.756,68.245
		c-44.008,44.008-68.244,102.52-68.244,164.755c0,62.237,24.236,120.749,68.245,164.757
		C391.247,537.282,449.758,561.519,511.995,561.519z"/>
	<path d="M899.401,684.752c-39.046-66.351-94.904-121.988-161.536-160.898c-6.766-3.951-15.351-2.769-20.796,2.864
		c-54.36,56.232-127.19,87.201-205.075,87.201c-77.882,0-150.711-30.968-205.069-87.198c-5.443-5.631-14.031-6.815-20.796-2.864
		c-66.631,38.912-122.489,94.55-161.533,160.899C84.3,753.232,63,831.633,63,911.481c0,9.389,7.611,17,17,17h864
		c9.389,0,17-7.611,17-17C961,831.632,939.699,753.23,899.401,684.752z"/>
</g>
</svg>
