<?xml version="1.0" encoding="utf-8"?>
<!-- Generator: Adobe Illustrator 17.0.0, SVG Export Plug-In . SVG Version: 6.00 Build 0)  -->
<!DOCTYPE svg PUBLIC "-//W3C//DTD SVG 1.1//EN" "http://www.w3.org/Graphics/SVG/1.1/DTD/svg11.dtd">
<svg version="1.1" id="图层_1" xmlns="http://www.w3.org/2000/svg" xmlns:xlink="http://www.w3.org/1999/xlink" x="0px" y="0px"
	 width="1024px" height="1024px" viewBox="0 0 1024 1024" enable-background="new 0 0 1024 1024" xml:space="preserve">
<g>
	<path d="M852.116,63.642H171.884c-59.971,0-108.761,50.444-108.761,112.448v543.104c0,62.004,48.79,112.448,108.761,112.448
		h233.798l89.669,119.977c3.776,5.052,9.713,8.026,16.02,8.026s12.245-2.975,16.02-8.026l89.669-119.977h235.057
		c59.971,0,108.761-50.444,108.761-112.448V176.09C960.877,114.085,912.087,63.642,852.116,63.642z M920.877,719.193
		c0,39.948-30.846,72.448-68.761,72.448H607.039c-6.307,0-12.244,2.975-16.02,8.026l-79.649,106.568l-79.648-106.568
		c-3.776-5.052-9.713-8.026-16.02-8.026H171.884c-37.915,0-68.761-32.5-68.761-72.448V176.09c0-39.948,30.846-72.448,68.761-72.448
		h680.232c37.915,0,68.761,32.5,68.761,72.448V719.193z"/>
	<circle cx="305.889" cy="435.059" r="50"/>
	<circle cx="512" cy="435.059" r="50"/>
	<circle cx="718.31" cy="435.059" r="50"/>
</g>
</svg>
