<?xml version="1.0" encoding="utf-8"?>
<!-- Generator: Adobe Illustrator 17.0.0, SVG Export Plug-In . SVG Version: 6.00 Build 0)  -->
<!DOCTYPE svg PUBLIC "-//W3C//DTD SVG 1.1//EN" "http://www.w3.org/Graphics/SVG/1.1/DTD/svg11.dtd">
<svg version="1.1" id="图层_1" xmlns="http://www.w3.org/2000/svg" xmlns:xlink="http://www.w3.org/1999/xlink" x="0px" y="0px"
	 width="1024px" height="1024px" viewBox="0 0 1024 1024" enable-background="new 0 0 1024 1024" xml:space="preserve">
<path d="M512,64C264.576,64,64,264.576,64,512s200.576,448,448,448s448-200.576,448-448S759.424,64,512,64z M493.926,233.492
	c0-11.046,8.954-20,20-20s20,8.954,20,20V505c0,11.045-8.954,20-20,20s-20-8.955-20-20V233.492z M708.805,705.694
	c-52.055,52.054-121.264,80.721-194.879,80.721s-142.824-28.667-194.878-80.721c-52.054-52.055-80.721-121.264-80.721-194.879
	c0-102.924,56.688-196.538,147.943-244.311c9.785-5.123,21.873-1.343,26.995,8.443c5.123,9.786,1.343,21.872-8.443,26.995
	c-78.025,40.847-126.495,120.882-126.495,208.873c0,129.91,105.689,235.6,235.6,235.6s235.6-105.689,235.6-235.6
	c0-88.352-48.76-168.538-127.251-209.267c-9.804-5.088-13.628-17.16-8.54-26.964c5.087-9.804,17.159-13.629,26.964-8.541
	c44.119,22.894,81.312,57.347,107.555,99.633c27.001,43.507,41.272,93.695,41.272,145.139
	C789.525,584.431,760.858,653.64,708.805,705.694z"/>
</svg>
