<?xml version="1.0" encoding="utf-8"?>
<!-- Generator: Adobe Illustrator 17.0.0, SVG Export Plug-In . SVG Version: 6.00 Build 0)  -->
<!DOCTYPE svg PUBLIC "-//W3C//DTD SVG 1.1//EN" "http://www.w3.org/Graphics/SVG/1.1/DTD/svg11.dtd">
<svg version="1.1" id="图层_1" xmlns="http://www.w3.org/2000/svg" xmlns:xlink="http://www.w3.org/1999/xlink" x="0px" y="0px"
	 width="1024px" height="1024px" viewBox="0 0 1024 1024" enable-background="new 0 0 1024 1024" xml:space="preserve">
<g>
	<path d="M512.005,232C383.718,232,279.35,336.367,279.35,464.651c0,47.601,14.333,93.37,41.456,132.403l20.032,24.977
		c8.764,9.003,102.032,97.253,171.163,162.477C581.067,719.345,674.229,631.197,683.192,622l20.003-24.945
		c27.121-39.032,41.455-84.802,41.455-132.404C744.65,336.367,640.286,232,512.005,232z M512.002,574.872
		c-62.982,0-114.223-51.239-114.223-114.221s51.24-114.221,114.223-114.221c62.98,0,114.219,51.239,114.219,114.221
		S574.982,574.872,512.002,574.872z"/>
	<path d="M512.002,386.431c-40.927,0-74.223,33.295-74.223,74.221s33.296,74.221,74.223,74.221
		c40.925,0,74.219-33.295,74.219-74.221S552.927,386.431,512.002,386.431z"/>
	<path d="M512,64C264.576,64,64,264.576,64,512s200.576,448,448,448s448-200.576,448-448S759.424,64,512,64z M735.612,620.498
		c-0.251,0.36-0.515,0.712-0.789,1.055l-20.951,26.128c-0.274,0.342-0.561,0.675-0.856,0.998
		c-8.094,8.835-157.438,149.72-187.295,177.872C521.869,830.184,516.934,832,512,832c-4.935,0-9.868-1.816-13.721-5.449
		C468.424,798.399,319.088,657.52,311.007,648.7c-0.296-0.323-0.583-0.656-0.857-0.999l-20.971-26.147
		c-0.275-0.343-0.539-0.694-0.791-1.056c-32.082-45.9-49.039-99.792-49.039-155.847C239.35,314.311,361.662,192,512.005,192
		c150.337,0,272.646,122.311,272.646,272.651C784.65,520.707,767.693,574.598,735.612,620.498z"/>
</g>
</svg>
