<?xml version="1.0" encoding="utf-8"?>
<!-- Generator: Adobe Illustrator 17.0.0, SVG Export Plug-In . SVG Version: 6.00 Build 0)  -->
<!DOCTYPE svg PUBLIC "-//W3C//DTD SVG 1.1//EN" "http://www.w3.org/Graphics/SVG/1.1/DTD/svg11.dtd">
<svg version="1.1" id="图层_1" xmlns="http://www.w3.org/2000/svg" xmlns:xlink="http://www.w3.org/1999/xlink" x="0px" y="0px"
	 width="1024px" height="1024px" viewBox="0 0 1024 1024" enable-background="new 0 0 1024 1024" xml:space="preserve">
<g>
	<path d="M476.488,296.795c-50.921,0-92.348,41.424-92.348,92.341c0,50.919,41.427,92.345,92.348,92.345
		c50.917,0,92.342-41.426,92.342-92.345C568.83,338.219,527.405,296.795,476.488,296.795z"/>
	<path d="M512,64C264.576,64,64,264.576,64,512s200.576,448,448,448s448-200.576,448-448S759.424,64,512,64z M476.915,522.908
		c-0.294-0.001-0.59-0.002-0.884-0.002c-47.417,0-92.106,19.291-125.93,54.382c-34.277,35.563-53.295,83.041-53.549,133.689
		c-0.056,11.011-8.999,19.899-19.998,19.899c-0.035,0-0.068,0-0.103,0c-11.045-0.056-19.955-9.055-19.899-20.101
		c0.306-60.98,23.301-118.246,64.75-161.247c22.703-23.554,49.457-41.282,78.604-52.511c-33.727-24.01-55.765-63.421-55.765-107.882
		c0-72.973,59.371-132.341,132.348-132.341c72.974,0,132.342,59.368,132.342,132.341c0,44.64-22.218,84.184-56.172,108.167
		c42.745,16.605,80.074,46.95,106.126,87.797c5.939,9.313,3.205,21.678-6.107,27.617c-9.312,5.938-21.677,3.206-27.617-6.107
		C591.821,554.496,536.441,523.206,476.915,522.908z M799.808,623.792L676.688,752.04c-3.685,3.838-8.746,6.05-14.065,6.146
		c-0.121,0.002-0.242,0.003-0.363,0.003c-5.189,0-10.182-2.019-13.916-5.636l-65.656-63.613c-7.933-7.687-8.133-20.349-0.447-28.281
		c7.688-7.932,20.348-8.133,28.281-0.447l51.227,49.633l109.204-113.754c7.649-7.968,20.309-8.228,28.278-0.577
		C807.199,603.163,807.457,615.824,799.808,623.792z"/>
</g>
</svg>
