<?xml version="1.0" encoding="utf-8"?>
<!-- Generator: Adobe Illustrator 17.0.0, SVG Export Plug-In . SVG Version: 6.00 Build 0)  -->
<!DOCTYPE svg PUBLIC "-//W3C//DTD SVG 1.1//EN" "http://www.w3.org/Graphics/SVG/1.1/DTD/svg11.dtd">
<svg version="1.1" id="图层_1" xmlns="http://www.w3.org/2000/svg" xmlns:xlink="http://www.w3.org/1999/xlink" x="0px" y="0px"
	 width="1024px" height="1024px" viewBox="0 0 1024 1024" enable-background="new 0 0 1024 1024" xml:space="preserve">
<g>
	<path d="M512,64C264.576,64,64,264.576,64,512s200.576,448,448,448s448-200.576,448-448S759.424,64,512,64z M792.268,379.923
		c-8.592,53.629-17.232,107.251-25.813,160.886c-7.894,49.324-15.731,98.657-23.602,147.982c-0.879,5.508-1.837,11.003-2.716,16.508
		c-1.713,10.734-8.264,16.336-19.208,16.344c-17.478,0.009-34.956,0-52.433,0H303.638c-12.272,0-18.41-5.475-20.315-17.636
		c-4.361-27.788-8.81-55.565-13.329-83.327c-2.032-12.492,5.46-21.793,18.184-22.096c5.701-0.139,11.406-0.049,17.113-0.046
		c114.699,0.037,229.401,0.071,344.099,0.156c2.764,0.003,5.638,0.172,8.27,0.933c7.783,2.25,13.105,10.409,12.192,18.162
		c-1.032,8.742-7.339,15.389-15.841,15.821c-8.111,0.418-16.257,0.156-24.388,0.15c-105.958-0.051-211.923-0.122-317.883-0.178
		h-4.098c2.841,17.792,5.622,35.213,8.462,53.018h4.087c127.81,0,255.62-0.008,383.43,0.054c2.877,0.003,4.11-0.48,4.618-3.744
		c8.346-53.055,16.867-106.087,25.368-159.114c5.704-35.555,11.432-71.104,17.145-106.656c0.132-0.825,0.153-1.667,0.302-3.343
		c-1.637,1.026-2.793,1.718-3.912,2.456c-27.83,18.391-55.654,36.787-83.482,55.178c-10.828,7.161-18.614,6.169-27.26-3.349
		c-40.71-44.833-81.442-89.652-122.16-134.483c-0.726-0.797-1.376-1.671-2.252-2.75c-6.365,6.984-12.402,13.591-18.422,20.219
		c-34.925,38.452-69.843,76.906-104.765,115.358c-0.571,0.63-1.145,1.258-1.721,1.882c-8.457,9.177-16.381,10.186-26.705,3.361
		c-28.028-18.53-56.048-37.064-84.073-55.596c-1.094-0.724-2.207-1.419-3.872-2.485c1.668,10.429,3.231,20.199,4.79,29.967
		c4.881,30.527,9.818,61.048,14.615,91.588c1.456,9.259-5.415,17.907-15.081,19.476c-9.016,1.459-18.012-5.031-19.581-14.456
		c-3.244-19.496-6.314-39.017-9.443-58.527c-5.262-32.802-10.564-65.595-15.682-98.416c-0.585-3.748-0.904-7.883,0.054-11.461
		c3.094-11.526,16.347-16.048,26.686-9.324c13.625,8.857,27.134,17.896,40.696,26.858c23.169,15.316,46.34,30.634,69.925,46.23
		c38.042-41.891,76.098-83.779,114.176-125.69c-29.73-20.058-31.208-58.402-10.26-80.688c20.844-22.18,55.673-22.308,76.666-0.407
		c21.225,22.144,20.097,60.668-9.864,81.1c38.019,41.852,75.996,83.661,114.105,125.611c1.456-0.924,2.773-1.727,4.056-2.577
		c35.216-23.274,70.436-46.535,105.618-69.86c5.048-3.343,10.313-4.774,16.201-2.985
		C788.591,362.603,793.703,370.96,792.268,379.923z"/>
	<path d="M511.895,247.523c-9.731-0.02-17.566,7.837-17.532,17.588c0.034,9.802,7.809,17.498,17.631,17.444
		c9.674-0.054,17.616-8.123,17.446-17.727C529.273,255.312,521.394,247.542,511.895,247.523z"/>
</g>
</svg>
