<?xml version="1.0" encoding="utf-8"?>
<!-- Generator: Adobe Illustrator 17.0.0, SVG Export Plug-In . SVG Version: 6.00 Build 0)  -->
<!DOCTYPE svg PUBLIC "-//W3C//DTD SVG 1.1//EN" "http://www.w3.org/Graphics/SVG/1.1/DTD/svg11.dtd">
<svg version="1.1" id="图层_1" xmlns="http://www.w3.org/2000/svg" xmlns:xlink="http://www.w3.org/1999/xlink" x="0px" y="0px"
	 width="1024px" height="1024px" viewBox="0 0 1024 1024" enable-background="new 0 0 1024 1024" xml:space="preserve">
<g>
	<path d="M579.045,416.498L512,280.65l-67.045,135.848c-2.913,5.903-8.544,9.995-15.059,10.941l-149.917,21.785L388.46,554.967
		c4.713,4.595,6.864,11.215,5.751,17.702L368.603,721.98l134.09-70.495c5.827-3.064,12.788-3.064,18.613,0l134.09,70.495
		l-25.608-149.312c-1.113-6.488,1.038-13.107,5.752-17.702l108.48-105.743l-149.917-21.785
		C587.589,426.493,581.958,422.401,579.045,416.498z"/>
	<path d="M512,64C264.576,64,64,264.576,64,512s200.576,448,448,448s448-200.576,448-448S759.424,64,512,64z M800.96,449.581
		l-129.971,126.69l30.682,178.89c1.287,7.503-1.798,15.087-7.956,19.562c-3.484,2.531-7.611,3.819-11.758,3.819
		c-3.184,0-6.379-0.759-9.305-2.298L512,691.783l-160.653,84.46c-6.739,3.545-14.903,2.952-21.063-1.521
		c-6.159-4.475-9.243-12.059-7.957-19.562l30.682-178.89L223.04,449.581c-5.451-5.314-7.413-13.262-5.061-20.502
		s8.611-12.517,16.145-13.612l179.615-26.1l80.326-162.758c3.369-6.827,10.322-11.149,17.935-11.149
		c7.613,0,14.565,4.322,17.935,11.149l80.326,162.758l179.615,26.1c7.534,1.095,13.793,6.372,16.146,13.612
		S806.412,444.267,800.96,449.581z"/>
</g>
</svg>
