<?xml version="1.0" encoding="utf-8"?>
<!-- Generator: Adobe Illustrator 17.0.0, SVG Export Plug-In . SVG Version: 6.00 Build 0)  -->
<!DOCTYPE svg PUBLIC "-//W3C//DTD SVG 1.1//EN" "http://www.w3.org/Graphics/SVG/1.1/DTD/svg11.dtd">
<svg version="1.1" id="图层_1" xmlns="http://www.w3.org/2000/svg" xmlns:xlink="http://www.w3.org/1999/xlink" x="0px" y="0px"
	 width="1024px" height="1024px" viewBox="0 0 1024 1024" enable-background="new 0 0 1024 1024" xml:space="preserve">
<g>
	<path d="M925.714,337.228c-22.615-53.467-54.989-101.484-96.223-142.718c-41.234-41.234-89.252-73.608-142.719-96.223
		C631.415,74.872,572.613,63,512,63c-60.613,0-119.415,11.872-174.772,35.286c-53.467,22.615-101.484,54.989-142.718,96.223
		c-41.234,41.234-73.608,89.251-96.223,142.718C74.872,392.585,63,451.387,63,512c0,60.613,11.872,119.415,35.286,174.772
		c22.615,53.467,54.989,101.484,96.223,142.719c41.234,41.233,89.251,73.607,142.718,96.223C392.585,949.128,451.387,961,512,961
		c60.613,0,119.415-11.872,174.772-35.286c53.467-22.615,101.484-54.989,142.719-96.223c41.233-41.234,73.607-89.252,96.223-142.719
		C949.128,631.415,961,572.613,961,512C961,451.387,949.128,392.585,925.714,337.228z M512,953C268.832,953,71,755.168,71,512
		C71,268.832,268.832,71,512,71c243.168,0,441,197.832,441,441C953,755.168,755.168,953,512,953z"/>
	<path d="M133.313,339.556l-7.278-3.32c-2.785,6.104-5.458,12.359-7.947,18.59l7.43,2.967
		C127.959,351.68,130.582,345.544,133.313,339.556z"/>
	<path d="M100.115,453.255l-7.921-1.119c-0.937,6.624-1.726,13.365-2.348,20.036l7.966,0.742
		C98.421,466.369,99.196,459.754,100.115,453.255z"/>
	<path d="M118.604,376.388l-7.563-2.607c-2.182,6.332-4.24,12.801-6.116,19.229l7.68,2.241
		C114.445,388.946,116.463,382.599,118.604,376.388z"/>
	<path d="M107.518,414.378l-7.778-1.87c-1.565,6.508-2.994,13.144-4.246,19.724l7.858,1.496
		C104.581,427.273,105.982,420.763,107.518,414.378z"/>
	<path d="M254.526,185.231l-4.955-6.28c-5.247,4.139-10.473,8.467-15.532,12.862l5.247,6.039
		C244.25,193.54,249.377,189.293,254.526,185.231z"/>
	<path d="M197.36,239.855l-6.048-5.236c-4.385,5.065-8.707,10.303-12.846,15.568l6.289,4.944
		C188.817,249.964,193.057,244.825,197.36,239.855z"/>
	<path d="M151.468,304.321l-6.929-4c-3.351,5.806-6.608,11.772-9.681,17.733l7.111,3.665
		C144.984,315.87,148.18,310.016,151.468,304.321z"/>
	<path d="M191.664,789.788c4.386,5.054,8.954,10.072,13.578,14.916l5.787-5.523c-4.537-4.753-9.02-9.678-13.323-14.637
		L191.664,789.788z"/>
	<path d="M96,512c0-6.432,0.148-12.938,0.441-19.339l-7.992-0.365C88.151,498.817,88,505.447,88,512v0.457h8V512z"/>
	<path d="M126.364,688.488c2.789,6.082,5.758,12.172,8.826,18.101l7.105-3.676c-3.01-5.817-5.924-11.792-8.66-17.759
		L126.364,688.488z"/>
	<path d="M111.342,651.093c2.197,6.33,4.577,12.688,7.072,18.897l7.423-2.982c-2.448-6.092-4.782-12.329-6.938-18.538
		L111.342,651.093z"/>
	<path d="M166.708,758.123c3.884,5.44,7.956,10.866,12.102,16.126l6.283-4.952c-4.068-5.16-8.063-10.484-11.874-15.822
		L166.708,758.123z"/>
	<path d="M144.872,724.254c3.349,5.78,6.886,11.564,10.514,17.191l6.724-4.334c-3.56-5.521-7.03-11.196-10.315-16.867
		L144.872,724.254z"/>
	<path d="M219.13,205.4c-4.841,4.625-9.637,9.429-14.253,14.278l5.794,5.517c4.53-4.758,9.236-9.472,13.986-14.011L219.13,205.4z"/>
	<path d="M96.484,532.248l-7.991,0.383c0.322,6.7,0.806,13.47,1.44,20.121l7.964-0.76C97.275,545.466,96.799,538.822,96.484,532.248
		z"/>
	<path d="M100.243,571.646l-7.919,1.137c0.952,6.631,2.077,13.324,3.343,19.896l7.855-1.514
		C102.281,584.719,101.177,578.151,100.243,571.646z"/>
	<path d="M107.73,610.504l-7.774,1.889c1.583,6.516,3.342,13.072,5.229,19.486l7.675-2.258
		C111.008,623.328,109.282,616.896,107.73,610.504z"/>
	<path d="M705.741,134.754c-5.962-3.068-12.08-6.034-18.186-8.815l-3.316,7.28c5.99,2.728,11.992,5.638,17.842,8.648
		L705.741,134.754z"/>
	<path d="M912.508,372.477c-2.205-6.33-4.592-12.685-7.093-18.891l-7.42,2.991c2.454,6.087,4.795,12.322,6.958,18.531
		L912.508,372.477z"/>
	<path d="M740.735,154.928c-5.644-3.622-11.448-7.155-17.254-10.503l-3.996,6.931c5.696,3.284,11.392,6.751,16.928,10.305
		L740.735,154.928z"/>
	<path d="M668.962,118.003c-6.237-2.487-12.616-4.854-18.959-7.037l-2.604,7.564c6.223,2.141,12.48,4.464,18.6,6.904
		L668.962,118.003z"/>
	<path d="M927.495,491.306l7.99-0.392c-0.329-6.707-0.821-13.475-1.462-20.119l-7.963,0.769
		C926.689,478.082,927.172,484.724,927.495,491.306z"/>
	<path d="M916.164,413.061l7.771-1.896c-1.589-6.514-3.355-13.068-5.25-19.481l-7.672,2.267
		C912.872,400.24,914.604,406.67,916.164,413.061z"/>
	<path d="M630.771,104.861c-6.421-1.871-12.981-3.612-19.502-5.176l-1.866,7.779c6.396,1.534,12.832,3.243,19.13,5.077
		L630.771,104.861z"/>
	<path d="M923.691,451.91l7.918-1.144c-0.956-6.617-2.087-13.31-3.363-19.893l-7.854,1.522
		C921.644,438.854,922.754,445.419,923.691,451.91z"/>
	<path d="M286.7,162.231l-4.339-6.722c-5.62,3.628-11.229,7.44-16.671,11.331l4.652,6.508
		C275.683,169.531,281.187,165.791,286.7,162.231z"/>
	<path d="M356.784,125.921l-2.986-7.422c-6.199,2.495-12.42,5.173-18.492,7.96l3.338,7.271
		C344.6,130.995,350.703,128.368,356.784,125.921z"/>
	<path d="M394.164,112.923l-2.263-7.674c-6.427,1.895-12.89,3.97-19.211,6.168l2.628,7.556
		C381.519,116.818,387.859,114.782,394.164,112.923z"/>
	<path d="M432.615,103.564l-1.519-7.854c-6.583,1.272-13.215,2.719-19.711,4.3l1.892,7.773
		C419.65,106.232,426.156,104.813,432.615,103.564z"/>
	<path d="M591.544,95.45c-6.576-1.248-13.273-2.354-19.905-3.288l-1.115,7.922c6.507,0.917,13.077,2.001,19.528,3.226L591.544,95.45
		z"/>
	<path d="M320.888,142.398l-3.681-7.103c-5.937,3.077-11.879,6.337-17.661,9.691l4.014,6.92
		C309.233,148.616,315.063,145.417,320.888,142.398z"/>
	<path d="M471.785,97.918l-0.764-7.964c-6.668,0.64-13.407,1.448-20.03,2.402l1.141,7.918
		C458.63,99.338,465.242,98.546,471.785,97.918z"/>
	<path d="M551.601,89.826c-6.659-0.617-13.43-1.083-20.124-1.386l-0.361,7.992c6.569,0.297,13.213,0.754,19.747,1.36L551.601,89.826
		z"/>
	<path d="M511.323,96l-0.013-8c-6.707,0.011-13.493,0.18-20.169,0.504l0.387,7.99C498.081,96.177,504.741,96.011,511.323,96z"/>
	<path d="M172.886,270.99l-6.517-4.64c-3.889,5.462-7.697,11.088-11.318,16.723l6.73,4.325
		C165.334,281.87,169.071,276.349,172.886,270.99z"/>
	<path d="M905.249,648.039l7.561,2.615c2.188-6.329,4.253-12.796,6.137-19.222l-7.678-2.25
		C909.421,635.486,907.396,641.831,905.249,648.039z"/>
	<path d="M890.5,684.854l7.275,3.328c2.795-6.111,5.475-12.362,7.966-18.581l-7.426-2.975
		C895.871,672.727,893.242,678.859,890.5,684.854z"/>
	<path d="M888.6,317.006l-7.102,3.684c3.018,5.816,5.938,11.788,8.68,17.75l7.268-3.342
		C894.651,329.021,891.675,322.935,888.6,317.006z"/>
	<path d="M757.464,166.237l-4.637,6.52c5.354,3.808,10.692,7.798,15.867,11.86l4.939-6.293
		C768.36,174.185,762.92,170.118,757.464,166.237z"/>
	<path d="M923.822,571.191l7.92,1.129c0.942-6.617,1.739-13.357,2.369-20.034l-7.965-0.75
		C925.529,558.087,924.747,564.7,923.822,571.191z"/>
	<path d="M872.307,720.07l6.924,4.008c3.36-5.806,6.624-11.77,9.7-17.725l-7.107-3.672
		C878.805,708.524,875.603,714.375,872.307,720.07z"/>
	<path d="M736.922,862.013l4.331,6.727c5.621-3.62,11.235-7.426,16.684-11.313l-4.645-6.514
		C747.945,854.727,742.438,858.461,736.922,862.013z"/>
	<path d="M916.377,610.061l7.775,1.879c1.571-6.501,3.007-13.136,4.269-19.719l-7.857-1.506
		C919.326,597.174,917.918,603.683,916.377,610.061z"/>
	<path d="M826.345,784.487l6.043,5.242c4.394-5.064,8.721-10.298,12.862-15.555l-6.283-4.951
		C834.902,774.382,830.656,779.518,826.345,784.487z"/>
	<path d="M818.442,218.965l-5.781,5.529c4.536,4.743,9.024,9.662,13.34,14.623l6.035-5.251
		C827.639,228.812,823.064,223.798,818.442,218.965z"/>
	<path d="M850.852,753.376l6.512,4.648c3.889-5.448,7.703-11.071,11.337-16.712l-6.727-4.332
		C858.409,742.515,854.667,748.031,850.852,753.376z"/>
	<path d="M844.907,249.392l-6.277,4.959c4.067,5.148,8.068,10.468,11.892,15.81l6.506-4.656
		C853.13,260.06,849.053,254.639,844.907,249.392z"/>
	<path d="M769.119,839.048l4.949,6.285c5.258-4.14,10.488-8.462,15.546-12.846l-5.24-6.045
		C779.411,830.744,774.278,834.985,769.119,839.048z"/>
	<path d="M799.018,813.128l5.52,5.789c4.847-4.62,9.648-9.419,14.27-14.263l-5.787-5.523
		C808.484,803.884,803.772,808.593,799.018,813.128z"/>
	<path d="M789.209,191.163l-5.232,6.051c4.974,4.301,9.908,8.777,14.667,13.303l5.514-5.797
		C799.307,200.107,794.278,195.546,789.209,191.163z"/>
	<path d="M868.366,282.17l-6.719,4.343c3.565,5.517,7.043,11.188,10.334,16.855l6.918-4.018
		C875.545,293.573,872.001,287.793,868.366,282.17z"/>
	<path d="M354.611,905.827c6.225,2.49,12.602,4.864,18.952,7.058l2.611-7.563c-6.23-2.15-12.485-4.48-18.592-6.923L354.611,905.827z
		"/>
	<path d="M392.789,919.011c6.42,1.878,12.979,3.626,19.496,5.197l1.875-7.777c-6.393-1.541-12.827-3.256-19.125-5.098
		L392.789,919.011z"/>
	<path d="M432.006,928.466c6.574,1.255,13.27,2.368,19.901,3.309l1.124-7.92c-6.507-0.924-13.076-2.016-19.525-3.246
		L432.006,928.466z"/>
	<path d="M317.85,889.036c5.955,3.073,12.071,6.046,18.177,8.835l3.324-7.277c-5.99-2.736-11.99-5.652-17.832-8.667L317.85,889.036z
		"/>
	<path d="M250.006,845.393c5.258,4.139,10.694,8.211,16.157,12.104l4.644-6.515c-5.36-3.819-10.693-7.815-15.852-11.876
		L250.006,845.393z"/>
	<path d="M935.999,511.079l-8,0.026L928,512c0,6.584-0.155,13.242-0.462,19.791l7.991,0.373C935.842,525.492,936,518.708,936,512
		L935.999,511.079z"/>
	<path d="M282.88,868.823c5.637,3.628,11.438,7.168,17.241,10.522l4.004-6.926c-5.694-3.292-11.385-6.765-16.916-10.323
		L282.88,868.823z"/>
	<path d="M590.944,920.52l1.508,7.856c6.576-1.263,13.21-2.702,19.718-4.278l-1.884-7.775
		C603.902,917.869,597.395,919.281,590.944,920.52z"/>
	<path d="M666.799,898.246l2.979,7.426c6.191-2.483,12.416-5.155,18.501-7.94l-3.33-7.273
		C678.979,893.19,672.873,895.811,666.799,898.246z"/>
	<path d="M219.512,818.965c4.848,4.621,9.872,9.188,14.933,13.573l5.239-6.045c-4.965-4.304-9.895-8.784-14.652-13.319
		L219.512,818.965z"/>
	<path d="M629.406,911.203l2.252,7.676c6.416-1.882,12.882-3.95,19.219-6.146l-2.619-7.559
		C642.041,907.328,635.699,909.356,629.406,911.203z"/>
	<path d="M551.768,926.124l0.754,7.965c6.671-0.632,13.411-1.433,20.033-2.38l-1.133-7.92
		C564.925,924.719,558.313,925.505,551.768,926.124z"/>
	<path d="M512.226,928l0.005,8c6.71-0.004,13.497-0.166,20.17-0.482l-0.379-7.99C525.473,927.837,518.813,927.996,512.226,928z"/>
	<path d="M471.943,934.132c6.659,0.624,13.43,1.097,20.123,1.407l0.37-7.992c-6.568-0.304-13.212-0.769-19.747-1.38L471.943,934.132
		z"/>
	<path d="M702.712,881.809l3.672,7.107c5.931-3.064,11.876-6.319,17.672-9.673l-4.006-6.924
		C714.363,875.609,708.529,878.802,702.712,881.809z"/>
	<path d="M725.799,628.105C685.099,704.616,604.539,756.835,512,756.835s-173.099-52.219-213.799-128.73h-18.134
		c12.384,25.303,28.994,48.659,49.499,69.164c48.73,48.729,113.519,75.566,182.434,75.566c68.914,0,133.704-26.837,182.434-75.566
		c20.505-20.505,37.115-43.861,49.499-69.164H725.799z"/>
	<path d="M301.312,395.895c41.605-73.409,120.452-123.06,210.688-123.06s169.082,49.651,210.688,123.06h18.382
		c-12.041-23.125-27.672-44.53-46.636-63.494c-48.729-48.73-113.52-75.567-182.434-75.567c-68.915,0-133.704,26.837-182.434,75.567
		c-18.964,18.964-34.595,40.368-46.636,63.494H301.312z"/>
	<path d="M388.647,586.716c7.161-0.358,12.89-2.507,17.187-6.445c3.698-4.06,6.683-17.483,8.952-40.282l-18.261-5.729
		c-1.074,18.501-2.806,28.944-5.192,31.33c-2.506,2.148-5.192,3.223-8.056,3.223h-89.158c-6.207,0-9.31-3.223-9.31-9.668v-47.802
		h110.283v-76.625h-136.78v17.903h117.803v40.819h-91.306v-23.632h-18.798v92.918c0,15.992,7.637,23.99,22.916,23.99H388.647z"/>
	<path d="M465.272,595.13c55.38-11.698,91.306-32.226,107.777-61.587l-16.292-7.52C542.077,551.209,508,569.35,454.53,580.449
		L465.272,595.13z"/>
	<path d="M594.892,514.924c-18.619-4.893-33.121-11.338-43.505-19.335h39.565v-16.829h-78.774c1.909-3.223,3.76-6.982,5.55-11.279
		l36.702-1.97c3.34,3.223,6.803,6.803,10.384,10.742l15.575-10.742c-9.31-9.667-22.678-21.064-40.103-34.195l-14.323,9.131
		c2.865,2.269,6.921,5.67,12.175,10.205c-17.666,1.074-35.69,1.969-54.068,2.686c8.952-6.445,17.724-13.786,26.318-22.021
		l-18.44-6.266c-18.977,17.903-33.42,27.392-43.325,28.466l2.686,16.113c12.054-0.238,27.75-0.716,47.085-1.433
		c-2.148,4.297-4.238,7.819-6.267,10.563H432.51v16.829h42.072c-11.816,8.355-27.034,15.1-45.653,20.231l8.414,16.649
		c26.614-9.547,47.265-21.842,61.945-36.88h31.331c11.695,14.921,30.436,27.034,56.216,36.343L594.892,514.924z"/>
	<path d="M467.063,567.201c31.868-5.729,58.723-20.527,80.564-44.4l-14.501-9.667c-17.903,21.246-43.388,34.553-76.447,39.924
		L467.063,567.201z"/>
	<path d="M524.89,506.867l-14.501-8.772c-10.504,12.532-27.154,22.558-49.95,30.077l8.235,14.502
		C494.096,533.723,512.833,521.788,524.89,506.867z"/>
	<path d="M659.343,574.184c-4.417,0-9.668-0.358-15.755-1.074l4.655,17.008c6.444,0.716,11.158,1.074,14.143,1.074
		c15.873,0,24.707-6.565,26.497-19.693c1.79-14.561,2.686-52.694,2.686-114.401H656.12v-29.898h-18.978v29.898h-26.317v18.261
		h26.317v5.371c-0.357,45.832-10.563,79.132-30.614,99.899l15.218,13.428c22.438-23.99,33.896-61.766,34.374-113.327v-5.371h17.187
		c-0.357,50.487-0.956,79.61-1.79,87.368C670.202,570.365,666.146,574.184,659.343,574.184z"/>
	<path d="M704.101,589.759h18.261v-10.741h25.78v10.741h18.262V446.176h-62.303V589.759z M722.361,464.258h25.78v96.498h-25.78
		V464.258z"/>
</g>
</svg>
